<?xml version="1.0" encoding="UTF-8" standalone="no"?><!DOCTYPE svg PUBLIC "-//W3C//DTD SVG 1.1//EN" "http://www.w3.org/Graphics/SVG/1.1/DTD/svg11.dtd"><svg width="100%" height="100%" viewBox="0 0 24 24" version="1.1" xmlns="http://www.w3.org/2000/svg" xmlns:xlink="http://www.w3.org/1999/xlink" xml:space="preserve" xmlns:serif="http://www.serif.com/" style="fill-rule:evenodd;clip-rule:evenodd;stroke-linecap:round;stroke-linejoin:round;"><path d="M10.391111021,8.047352544l0,-4.022222448c0,-0.441305191 0.363139298,-0.80444449 0.80444449,-0.80444449l1.608888979,0c0.441305191,0 0.80444449,0.363139298 0.80444449,0.80444449l0,4.022222448" style="fill:none;fill-rule:nonzero;stroke:#ffa700;stroke-width:1.61px;"/><path d="M13.608888979,4.829574585c2.647831147,0 4.826666938,2.178835791 4.826666938,4.826666938l0,2.413333469" style="fill:none;fill-rule:nonzero;stroke:#ffa700;stroke-width:1.61px;"/><path d="M5.564444083,12.069574992l0,-2.413333469c-0,-2.647831147 2.178835791,-4.826666938 4.826666938,-4.826666938" style="fill:none;fill-rule:nonzero;stroke:#ffa700;stroke-width:1.61px;"/><path d="M20.044444897,13.069574988l0,1.217777966c0,0.551915022 -0.448084968,0.999999996 -0.999999984,0.999999996l-14.088889824,0c-0.551915016,0 -0.999999984,-0.448084974 -0.999999984,-0.999999996l0,-1.217777966c0,-0.551915022 0.448084968,-0.999999996 0.999999984,-0.999999996l14.088889824,0c0.551915016,0 0.999999984,0.448084974 0.999999984,0.999999996Z" style="fill:none;stroke:#001c65;stroke-width:1.61px;"/><g transform="matrix(0.422801,0,0,0.422801,0.65979,12.774277)"><text x="5.637037489px" y="18.933333785px" style="font-family:'Arial-BoldMT', 'Arial', sans-serif;font-weight:700;font-size:12px;fill:#001c65;">MT</text><g transform="matrix(12,0,0,12,47.637037,18.933334)"></g><text x="22.963209364px" y="18.933333785px" style="font-family:'Arial-BoldMT', 'Arial', sans-serif;font-weight:700;font-size:12px;fill:#ffa700;">ERP</text></g></svg>